HIERARCHY
ROOT Hips
{
	OFFSET 0.00000 0.00000 0.00000
	CHANNELS 6 Xposition Yposition Zposition Zrotation Yrotation Xrotation 
	JOINT LHipJoint
	{
		OFFSET 0 0 0
		CHANNELS 3 Zrotation Yrotation Xrotation
		JOINT LeftUpLeg
		{
			OFFSET 1.75344 -1.53157 0.77399
			CHANNELS 3 Zrotation Yrotation Xrotation
			JOINT LeftLeg
			{
				OFFSET 2.25415 -6.19323 0.00000
				CHANNELS 3 Zrotation Yrotation Xrotation
				JOINT LeftFoot
				{
					OFFSET 2.30342 -6.32861 0.00000
					CHANNELS 3 Zrotation Yrotation Xrotation
					JOINT LeftToeBase
					{
						OFFSET 0.10958 -0.30108 1.49206
						CHANNELS 3 Zrotation Yrotation Xrotation
						End Site
						{
							OFFSET 0.00000 -0.00000 0.77783
						}
					}
				}
			}
		}
	}
	JOINT RHipJoint
	{
		OFFSET 0 0 0
		CHANNELS 3 Zrotation Yrotation Xrotation
		JOINT RightUpLeg
		{
			OFFSET -1.81912 -1.53156 0.77399
			CHANNELS 3 Zrotation Yrotation Xrotation
			JOINT RightLeg
			{
				OFFSET -2.22882 -6.12365 0.00000
				CHANNELS 3 Zrotation Yrotation Xrotation
				JOINT RightFoot
				{
					OFFSET -2.21943 -6.09785 0.00000
					CHANNELS 3 Zrotation Yrotation Xrotation
					JOINT RightToeBase
					{
						OFFSET -0.18931 -0.52012 1.59379
						CHANNELS 3 Zrotation Yrotation Xrotation
						End Site
						{
							OFFSET -0.00000 -0.00000 0.84686
						}
					}
				}
			}
		}
	}
	JOINT LowerBack
	{
		OFFSET 0 0 0
		CHANNELS 3 Zrotation Yrotation Xrotation
		JOINT Spine
		{
			OFFSET -0.00200 1.66634 -0.14248
			CHANNELS 3 Zrotation Yrotation Xrotation
			JOINT Spine1
			{
				OFFSET -0.00875 1.64542 0.09514
				CHANNELS 3 Zrotation Yrotation Xrotation
				JOINT Neck
				{
					OFFSET 0 0 0
					CHANNELS 3 Zrotation Yrotation Xrotation
					JOINT Neck1
					{
						OFFSET 0.02257 1.59605 0.00839
						CHANNELS 3 Zrotation Yrotation Xrotation
						JOINT Head
						{
							OFFSET -0.10214 1.57530 -0.23335
							CHANNELS 3 Zrotation Yrotation Xrotation
							End Site
							{
								OFFSET -0.03588 1.60717 -0.08062
							}
						}
					}
				}
				JOINT LeftShoulder
				{
					OFFSET 0 0 0
					CHANNELS 3 Zrotation Yrotation Xrotation
					JOINT LeftArm
					{
						OFFSET 2.54983 1.10186 0.40078
						CHANNELS 3 Zrotation Yrotation Xrotation
						JOINT LeftForeArm
						{
							OFFSET 4.28840 -0.00000 0.00000
							CHANNELS 3 Zrotation Yrotation Xrotation
							JOINT LeftHand
							{
								OFFSET 3.06552 -0.00000 -0.00000
								CHANNELS 3 Zrotation Yrotation Xrotation
								JOINT LeftFingerBase
								{
									OFFSET 0 0 0
									CHANNELS 3 Zrotation Yrotation Xrotation
									JOINT LeftHandIndex1
									{
										OFFSET 0.75304 -0.00000 0.00000
										CHANNELS 3 Zrotation Yrotation Xrotation
										End Site
										{
											OFFSET 0.60712 -0.00000 0.00000
										}
									}
								}
								JOINT LThumb
								{
									OFFSET 0 0 0
									CHANNELS 3 Zrotation Yrotation Xrotation
									End Site
									{
										OFFSET 0.61639 -0.00000 0.61639
									}
								}
							}
						}
					}
				}
				JOINT RightShoulder
				{
					OFFSET 0 0 0
					CHANNELS 3 Zrotation Yrotation Xrotation
					JOINT RightArm
					{
						OFFSET -2.60909 1.35448 0.21802
						CHANNELS 3 Zrotation Yrotation Xrotation
						JOINT RightForeArm
						{
							OFFSET -4.52172 -0.00000 -0.00000
							CHANNELS 3 Zrotation Yrotation Xrotation
							JOINT RightHand
							{
								OFFSET -2.89140 -0.00000 0.00000
								CHANNELS 3 Zrotation Yrotation Xrotation
								JOINT RightFingerBase
								{
									OFFSET 0 0 0
									CHANNELS 3 Zrotation Yrotation Xrotation
									JOINT RightHandIndex1
									{
										OFFSET -0.68054 -0.00000 0.00000
										CHANNELS 3 Zrotation Yrotation Xrotation
										End Site
										{
											OFFSET -0.54867 -0.00000 0.00000
										}
									}
								}
								JOINT RThumb
								{
									OFFSET 0 0 0
									CHANNELS 3 Zrotation Yrotation Xrotation
									End Site
									{
										OFFSET -0.55705 -0.00000 0.55705
									}
								}
							}
						}
					}
				}
			}
		}
	}
}
MOTION
Frames: 14
Frame Time: .0083333
7.8173 15.1614 41.7643 0 0 0 0 0 0 -21 0 0 0 0 0 0 0 0 0 0 0 0 0 0 21 0 0 0 0 0 0 0 0 0 0 0 0 0 0 0 0 0 0 0 0 0 0 -16 0 0 21 0 0 11 0 0 0 -8 0 0 0 0 0 0 0 0 0 0 0 0 0 0 0 0 0 0 0 0 8 0 0 0 0 0 0 0 0 0 0 0 0 0 0 0 0 0
7.8173 15.1614 41.7643 -179.7560 -2.0963 177.2300 0.0000 0.0000 0.0000 -26.8880 -23.3288 0.4816 2.5814 9.9844 28.9261 1.3747 9.3495 -27.3069 2.5091 -9.8544 -28.5065 0.0000 0.0000 0.0000 29.2070 17.6217 3.1456 -1.9549 -8.7715 25.0830 0.4059 -25.4316 -33.3634 -0.1439 2.4448 -6.7366 0.6537 1.0478 6.6229 -0.4625 1.3057 -5.1413 -1.0365 0.5189 -9.1364 -6.7403 -3.3568 -5.9316 3.8811 -5.1298 16.8736 1.9416 -2.8951 6.3626 0.0000 -0.0000 0.0000 -87.0514 15.7435 24.9357 21.9047 -32.8691 -6.5340 -0.0000 -0.0000 17.2294 8.7553 -24.3369 -3.6316 -7.1250 0.0000 -0.0000 -12.6449 5.8843 11.5741 0.0000 -0.0000 0.0000 82.6973 -15.5855 57.7661 -18.6359 28.9638 -4.8533 0.0000 0.0000 10.3554 -5.9702 -55.5326 4.9279 7.1250 -0.0000 -0.0000 78.1471 -74.0501 -61.4729
7.8188 15.1567 41.7641 -179.7850 -2.0640 177.0570 0.0000 0.0000 0.0000 -26.9734 -23.1907 0.6253 2.5861 9.9928 28.9534 1.3770 9.3282 -27.3080 2.6243 -10.0604 -29.1726 0.0000 0.0000 0.0000 29.2920 17.7058 3.3720 -1.9602 -8.7827 25.1180 0.4850 -25.6482 -33.2033 -0.1654 2.6203 -7.2233 0.6203 1.0404 6.7794 -0.4516 1.2981 -5.1125 -1.0082 0.5190 -9.1986 -6.6799 -3.3450 -5.8820 3.7813 -5.1142 16.8998 1.9017 -2.8945 6.3574 -0.0000 0.0000 0.0000 -87.0891 15.7920 24.8612 21.9091 -32.8741 -6.5364 -0.0000 -0.0000 17.2359 6.5698 -24.7071 -2.7560 -7.1250 0.0000 -0.0000 -13.9743 5.7367 12.9064 -0.0000 0.0000 0.0000 82.6588 -15.6158 57.8772 -18.6133 28.9353 -4.8423 0.0000 0.0000 10.3111 -6.1653 -55.2116 5.0697 7.1250 -0.0000 -0.0000 76.9729 -74.0688 -60.3587
7.8191 15.1546 41.7654 -179.7520 -2.0517 176.9710 0.0000 0.0000 0.0000 -27.0005 -23.1938 0.7531 2.5844 9.9897 28.9435 1.3627 9.5010 -27.3336 2.8055 -10.3733 -30.1942 0.0000 0.0000 0.0000 29.4059 17.8511 3.5553 -1.9638 -8.7904 25.1417 0.4037 -25.4787 -33.4471 -0.1287 2.3127 -6.3708 0.6702 1.0302 6.8649 -0.4382 1.2930 -5.1078 -1.0232 0.5141 -9.2435 -6.7030 -3.3303 -5.8201 3.8473 -5.1138 16.9152 1.9275 -2.8945 6.3535 0.0000 -0.0000 0.0000 -87.1026 15.8555 24.8614 21.9428 -32.9123 -6.5547 -0.0000 -0.0000 17.2061 6.5004 -24.8170 -2.7380 -7.1250 0.0000 -0.0000 -14.0171 5.6363 12.9761 0.0000 -0.0000 0.0000 82.6418 -15.6285 57.9393 -18.5915 28.9080 -4.8318 0.0000 0.0000 10.2329 -6.2241 -54.7997 5.0926 7.1250 -0.0000 -0.0000 75.5264 -74.0146 -58.9086
7.8218 15.1559 41.7671 -179.7370 -2.0546 177.0390 0.0000 0.0000 0.0000 -26.9359 -23.1857 0.6638 2.5839 9.9888 28.9405 1.3562 9.5653 -27.3353 2.8626 -10.4692 -30.5099 0.0000 0.0000 0.0000 29.3784 17.7983 3.4503 -1.9652 -8.7932 25.1506 0.3293 -25.2439 -33.5524 -0.0955 1.9929 -5.4861 0.6384 1.0320 6.8054 -0.4169 1.2913 -5.1286 -0.9814 0.5152 -9.2322 -6.7244 -3.3118 -5.7789 3.9097 -5.0959 16.8685 1.9534 -2.8822 6.3324 -0.0000 -0.0000 0.0000 -87.1052 15.8571 24.9658 21.9340 -32.9023 -6.5499 -0.0000 -0.0000 17.3367 9.2858 -24.7328 -3.9133 -7.1250 0.0000 -0.0000 -12.3313 5.4404 11.3793 -0.0000 -0.0000 0.0000 82.6110 -15.6383 57.9163 -18.6029 28.9222 -4.8373 0.0000 0.0000 10.1846 -6.2544 -54.5704 5.1031 7.1250 -0.0000 -0.0000 74.7263 -73.9793 -58.1058
7.8236 15.1571 41.7667 -179.7830 -2.0716 177.0540 0.0000 0.0000 0.0000 -26.9636 -23.1891 0.6561 2.5828 9.9870 28.9347 1.3836 9.3797 -27.3928 2.6699 -10.1405 -29.4329 0.0000 0.0000 0.0000 29.2902 17.6439 3.3674 -1.9640 -8.7906 25.1425 0.3325 -25.1723 -33.4275 -0.1118 2.1561 -5.9374 0.5841 1.0367 6.7476 -0.4326 1.2907 -5.1041 -0.9660 0.5188 -9.1720 -6.6910 -3.3133 -5.7364 3.9179 -5.0909 16.7367 1.9527 -2.8724 6.2823 -0.0000 -0.0000 0.0000 -87.0882 15.8340 25.1161 21.8802 -32.8414 -6.5208 -0.0000 -0.0000 17.7079 7.8965 -25.1262 -3.3705 -7.1250 0.0000 -0.0000 -13.1799 5.1998 12.2675 -0.0000 -0.0000 0.0000 82.6405 -15.6067 57.8062 -18.6104 28.9317 -4.8409 0.0000 0.0000 10.1798 -6.2775 -54.7060 5.1305 7.1250 -0.0000 -0.0000 75.1847 -74.0155 -58.5836
7.8234 15.1578 41.7673 -179.8050 -2.1144 177.0620 0.0000 0.0000 0.0000 -26.9752 -23.2193 0.6547 2.5811 9.9838 28.9244 1.4106 9.1478 -27.4153 2.5101 -9.8563 -28.5125 0.0000 0.0000 0.0000 29.2623 17.6134 3.3592 -1.9622 -8.7870 25.1311 0.3715 -25.3381 -33.4345 -0.1323 2.3446 -6.4591 0.6144 1.0251 6.7190 -0.4662 1.2759 -5.0891 -1.0158 0.5090 -9.1376 -6.6737 -3.3295 -5.6821 3.9557 -5.1182 16.6543 1.9613 -2.8803 6.2487 -0.0000 0.0000 0.0000 -87.0412 15.8382 25.1929 21.9022 -32.8663 -6.5327 -0.0000 -0.0000 17.7271 7.4081 -25.3792 -3.1897 -7.1250 0.0000 -0.0000 -13.4781 5.0020 12.6132 -0.0000 0.0000 0.0000 82.7121 -15.5616 57.6960 -18.5583 28.8661 -4.8157 0.0000 0.0000 10.2672 -6.3440 -54.6554 5.1818 7.1250 -0.0000 -0.0000 74.9874 -74.0294 -58.4118
7.8246 15.1588 41.7707 -179.7950 -2.1194 177.0690 0.0000 0.0000 0.0000 -26.9234 -23.1763 0.5946 2.5798 9.9816 28.9172 1.3996 9.1073 -27.3081 2.5744 -9.9720 -28.8860 0.0000 0.0000 0.0000 29.2835 17.6755 3.3627 -1.9611 -8.7845 25.1236 0.3984 -25.4936 -33.5022 -0.1176 2.2111 -6.0894 0.6139 1.0220 6.7375 -0.4543 1.2725 -5.0981 -1.0028 0.5074 -9.1587 -6.7596 -3.3215 -5.5423 4.0443 -5.1260 16.6158 2.0056 -2.8867 6.2169 0.0000 0.0000 0.0000 -87.0587 15.8186 25.1290 22.0670 -33.0527 -6.6224 -0.0000 -0.0000 17.0797 5.9361 -25.2442 -2.5390 -7.1250 0.0000 -0.0000 -14.3589 5.2736 13.4161 0.0000 0.0000 0.0000 82.7471 -15.5372 57.6519 -18.4712 28.7563 -4.7738 0.0000 0.0000 10.3412 -6.5897 -54.4882 5.3720 7.1250 -0.0000 -0.0000 74.3234 -74.0841 -57.8441
7.8262 15.1588 41.7711 -179.7880 -2.0718 176.9760 0.0000 0.0000 0.0000 -26.9625 -23.1802 0.7154 2.5808 9.9834 28.9231 1.3946 9.1855 -27.3289 2.5780 -9.9784 -28.9069 0.0000 0.0000 0.0000 29.3454 17.7143 3.4972 -1.9597 -8.7816 25.1145 0.3466 -25.3013 -33.5321 -0.0875 1.9079 -5.2513 0.5735 1.0270 6.7832 -0.4011 1.2837 -5.0502 -0.9258 0.5195 -9.1352 -6.8881 -3.2869 -5.6505 4.1604 -5.0798 16.6978 2.0649 -2.8635 6.2650 0.0000 -0.0000 0.0000 -87.1535 15.8164 25.1213 21.9815 -32.9561 -6.5758 -0.0000 -0.0000 17.6174 6.8415 -25.4683 -2.9534 -7.1250 0.0000 -0.0000 -13.8190 4.9709 12.9605 0.0000 -0.0000 0.0000 82.7131 -15.4315 57.7178 -18.3864 28.6492 -4.7331 0.0000 0.0000 10.3746 -6.8056 -54.7168 5.5641 7.1250 -0.0000 -0.0000 75.0433 -74.2099 -58.6726
7.8274 15.1566 41.7701 -179.7920 -2.0217 176.9240 0.0000 0.0000 0.0000 -26.9978 -23.1510 0.7919 2.5821 9.9857 28.9305 1.3942 9.2581 -27.3794 2.6339 -10.0773 -29.2275 0.0000 0.0000 0.0000 29.3907 17.7831 3.6090 -1.9596 -8.7814 25.1138 0.3050 -25.1300 -33.5331 -0.0918 1.9544 -5.3796 0.5488 1.0275 6.7821 -0.3531 1.2880 -5.0160 -0.8614 0.5264 -9.0987 -6.9509 -3.2477 -5.8341 4.1365 -5.0166 16.8993 2.0682 -2.8407 6.3582 0.0000 0.0000 0.0000 -87.2509 15.7728 25.0250 22.0786 -33.0657 -6.6287 -0.0000 -0.0000 17.0619 5.4343 -25.2009 -2.3196 -7.1250 0.0000 -0.0000 -14.6589 5.3606 13.6913 0.0000 0.0000 0.0000 82.6210 -15.3524 57.8160 -18.3305 28.5783 -4.7063 0.0000 0.0000 10.5109 -6.7299 -54.7646 5.5053 7.1250 -0.0000 -0.0000 75.2357 -74.1917 -58.8351
7.8287 15.1536 41.7713 -179.8140 -1.9949 176.9250 0.0000 0.0000 0.0000 -26.9843 -23.0456 0.7436 2.5821 9.9856 28.9302 1.3910 9.2289 -27.3347 2.7183 -10.2244 -29.7064 0.0000 0.0000 0.0000 29.3943 17.8637 3.6389 -1.9611 -8.7845 25.1236 0.3417 -25.3001 -33.5597 -0.1115 2.1526 -5.9276 0.5375 1.0234 6.7759 -0.3299 1.2828 -5.0204 -0.8296 0.5252 -9.1007 -6.9950 -3.2205 -5.9254 4.1075 -4.9779 17.0575 2.0667 -2.8308 6.4226 0.0000 0.0000 0.0000 -87.3301 15.7576 24.9585 22.0301 -33.0110 -6.6022 -0.0000 -0.0000 17.0559 5.3373 -25.2088 -2.2787 -7.1250 0.0000 -0.0000 -14.7168 5.3615 13.7491 0.0000 0.0000 0.0000 82.5417 -15.3575 57.8556 -18.3252 28.5716 -4.7037 0.0000 0.0000 10.6232 -6.5429 -54.5255 5.3362 7.1250 -0.0000 -0.0000 74.4689 -74.0750 -57.9715
7.8291 15.1525 41.7722 -179.8170 -2.0140 176.8990 0.0000 0.0000 0.0000 -26.9875 -23.0368 0.7550 2.5838 9.9886 28.9400 1.4055 9.1404 -27.3740 2.6537 -10.1122 -29.3409 0.0000 0.0000 0.0000 29.3953 17.8272 3.6513 -1.9600 -8.7822 25.1162 0.3772 -25.4620 -33.5839 -0.1173 2.2080 -6.0807 0.6030 1.0031 6.7916 -0.3486 1.2621 -5.0089 -0.8835 0.5108 -9.0959 -6.9915 -3.1894 -5.9908 4.1055 -4.9439 17.1852 2.0664 -2.8181 6.4724 0.0000 0.0000 0.0000 -87.3628 15.6854 24.8260 21.9711 -32.9443 -6.5701 -0.0000 -0.0000 17.0804 6.0563 -25.1655 -2.5832 -7.1250 0.0000 -0.0000 -14.2864 5.3390 13.3255 0.0000 0.0000 0.0000 82.5414 -15.3407 57.8985 -18.3474 28.5997 -4.7143 0.0000 0.0000 10.6149 -6.5414 -54.5581 5.3371 7.1250 -0.0000 -0.0000 74.5822 -74.0812 -58.0862
7.8285 15.1531 41.7723 -179.8230 -2.0532 176.8900 0.0000 0.0000 0.0000 -27.0213 -23.1158 0.7926 2.5852 9.9913 28.9485 1.4180 9.1237 -27.4509 2.5572 -9.9412 -28.7865 0.0000 0.0000 0.0000 29.3718 17.7542 3.6359 -1.9565 -8.7748 25.0934 0.2845 -25.0271 -33.5077 -0.1197 2.2309 -6.1443 0.7073 0.9817 6.7951 -0.4070 1.2403 -5.0018 -1.0008 0.4917 -9.0871 -6.9747 -3.1545 -6.0291 4.1890 -4.9187 17.2625 2.0913 -2.8013 6.5034 0.0000 -0.0000 0.0000 -87.3136 15.6343 24.7926 21.8347 -32.7897 -6.4961 -0.0000 -0.0000 17.5800 7.6899 -25.1587 -3.2853 -7.1250 0.0000 -0.0000 -13.3050 5.1890 12.3934 0.0000 -0.0000 0.0000 82.6317 -15.3139 57.8398 -18.3380 28.5878 -4.7099 0.0000 0.0000 10.6810 -6.4645 -54.6775 5.2819 7.1250 -0.0000 -0.0000 75.0220 -74.0777 -58.5004
7.8281 15.1540 41.7730 -179.8200 -2.0511 176.9670 0.0000 0.0000 0.0000 -26.9803 -23.1413 0.7036 2.5824 9.9862 28.9320 1.4098 9.1250 -27.3937 2.5670 -9.9588 -28.8433 0.0000 0.0000 0.0000 29.3464 17.7567 3.5214 -1.9546 -8.7709 25.0812 0.4189 -25.4170 -33.2613 -0.1174 2.2091 -6.0840 0.7699 0.9813 6.7112 -0.4268 1.2425 -5.0098 -1.0555 0.4877 -9.0445 -6.9894 -3.1224 -6.0403 4.2624 -4.8871 17.2826 2.1196 -2.7822 6.5116 0.0000 0.0000 0.0000 -87.2662 15.5688 24.8280 21.9882 -32.9637 -6.5794 -0.0000 -0.0000 16.8656 5.8865 -24.7470 -2.4713 -7.1250 0.0000 -0.0000 -14.3862 5.7601 13.3060 0.0000 0.0000 0.0000 82.6783 -15.2815 57.7153 -18.3321 28.5804 -4.7071 0.0000 0.0000 10.7374 -6.1524 -54.6882 5.0269 7.1250 -0.0000 -0.0000 75.1669 -73.9665 -58.5102
